<svg xmlns="http://www.w3.org/2000/svg" xmlns:xlink="http://www.w3.org/1999/xlink" width="200" zoomAndPan="magnify" viewBox="0 0 150 149.999998" height="200" preserveAspectRatio="xMidYMid meet" version="1.0"><defs><g/><clipPath id="71448a9247"><path d="M 34.808594 17.59375 L 133.140625 17.59375 L 133.140625 137.132812 L 34.808594 137.132812 Z M 34.808594 17.59375 " clip-rule="nonzero"/></clipPath><clipPath id="912b625b4c"><path d="M 34.808594 23 L 128 23 L 128 132 L 34.808594 132 Z M 34.808594 23 " clip-rule="nonzero"/></clipPath><clipPath id="bd97ff5e9a"><path d="M 14 6 L 132 6 L 132 128 L 14 128 Z M 14 6 " clip-rule="nonzero"/></clipPath><clipPath id="666e617c28"><path d="M 4.242188 9.859375 L 115.433594 -5.621094 L 132.746094 118.726562 L 21.554688 134.207031 Z M 4.242188 9.859375 " clip-rule="nonzero"/></clipPath><clipPath id="b93bfd383a"><path d="M 4.242188 9.859375 L 115.433594 -5.621094 L 132.746094 118.726562 L 21.554688 134.207031 Z M 4.242188 9.859375 " clip-rule="nonzero"/></clipPath><clipPath id="52b62ce16c"><path d="M 17 22 L 107 22 L 107 125 L 17 125 Z M 17 22 " clip-rule="nonzero"/></clipPath><clipPath id="d0ba52f4a9"><path d="M 4.242188 9.859375 L 115.433594 -5.621094 L 132.746094 118.726562 L 21.554688 134.207031 Z M 4.242188 9.859375 " clip-rule="nonzero"/></clipPath><clipPath id="72efe6c924"><path d="M 4.242188 9.859375 L 115.433594 -5.621094 L 132.746094 118.726562 L 21.554688 134.207031 Z M 4.242188 9.859375 " clip-rule="nonzero"/></clipPath><clipPath id="fc5295e4e4"><path d="M 22 9 L 111 9 L 111 107 L 22 107 Z M 22 9 " clip-rule="nonzero"/></clipPath><clipPath id="e735555190"><path d="M 4.242188 9.859375 L 115.433594 -5.621094 L 132.746094 118.726562 L 21.554688 134.207031 Z M 4.242188 9.859375 " clip-rule="nonzero"/></clipPath><clipPath id="370b92a07a"><path d="M 4.242188 9.859375 L 115.433594 -5.621094 L 132.746094 118.726562 L 21.554688 134.207031 Z M 4.242188 9.859375 " clip-rule="nonzero"/></clipPath><clipPath id="302431221c"><path d="M 17 28 L 107 28 L 107 124 L 17 124 Z M 17 28 " clip-rule="nonzero"/></clipPath><clipPath id="2166c78d51"><path d="M 4.242188 9.859375 L 115.433594 -5.621094 L 132.746094 118.726562 L 21.554688 134.207031 Z M 4.242188 9.859375 " clip-rule="nonzero"/></clipPath><clipPath id="e28db98c59"><path d="M 4.242188 9.859375 L 115.433594 -5.621094 L 132.746094 118.726562 L 21.554688 134.207031 Z M 4.242188 9.859375 " clip-rule="nonzero"/></clipPath><clipPath id="0933aa7573"><path d="M 16 8 L 129 8 L 129 126 L 16 126 Z M 16 8 " clip-rule="nonzero"/></clipPath><clipPath id="3f25d5530c"><path d="M 4.242188 9.859375 L 115.433594 -5.621094 L 132.746094 118.726562 L 21.554688 134.207031 Z M 4.242188 9.859375 " clip-rule="nonzero"/></clipPath><clipPath id="f3316f7b32"><path d="M 4.242188 9.859375 L 115.433594 -5.621094 L 132.746094 118.726562 L 21.554688 134.207031 Z M 4.242188 9.859375 " clip-rule="nonzero"/></clipPath><clipPath id="c40438a9fe"><path d="M 2 104 L 147 104 L 147 149 L 2 149 Z M 2 104 " clip-rule="nonzero"/></clipPath><clipPath id="b41feb1baf"><path d="M 2.625 119.238281 L 144.113281 104.023438 L 147.292969 133.578125 L 5.800781 148.796875 Z M 2.625 119.238281 " clip-rule="nonzero"/></clipPath><clipPath id="96dad56bf7"><path d="M 2 104 L 148 104 L 148 149 L 2 149 Z M 2 104 " clip-rule="nonzero"/></clipPath><clipPath id="eca031d9a1"><path d="M 2.625 119.238281 L 144.113281 104.023438 L 147.292969 133.578125 L 5.800781 148.796875 Z M 2.625 119.238281 " clip-rule="nonzero"/></clipPath></defs><g clip-path="url(#71448a9247)"><path fill="#19f7ee" d="M 133.140625 77.363281 C 133.140625 79.320312 133.042969 81.273438 132.851562 83.222656 C 132.660156 85.171875 132.371094 87.105469 131.992188 89.023438 C 131.609375 90.945312 131.132812 92.839844 130.566406 94.714844 C 129.996094 96.585938 129.339844 98.429688 128.589844 100.238281 C 127.839844 102.046875 127.003906 103.8125 126.082031 105.539062 C 125.160156 107.265625 124.152344 108.941406 123.066406 110.570312 C 121.980469 112.199219 120.8125 113.769531 119.570312 115.28125 C 118.332031 116.792969 117.015625 118.242188 115.632812 119.628906 C 114.25 121.011719 112.800781 122.324219 111.289062 123.566406 C 109.773438 124.808594 108.203125 125.972656 106.574219 127.058594 C 104.949219 128.148438 103.269531 129.152344 101.546875 130.074219 C 99.820312 131 98.050781 131.835938 96.242188 132.582031 C 94.433594 133.332031 92.59375 133.992188 90.71875 134.558594 C 88.847656 135.128906 86.949219 135.601562 85.03125 135.984375 C 83.109375 136.367188 81.175781 136.652344 79.226562 136.84375 C 77.28125 137.039062 75.328125 137.132812 73.371094 137.132812 C 71.414062 137.132812 69.460938 137.039062 67.511719 136.84375 C 65.5625 136.652344 63.628906 136.367188 61.710938 135.984375 C 59.789062 135.601562 57.894531 135.128906 56.019531 134.558594 C 54.148438 133.992188 52.304688 133.332031 50.496094 132.582031 C 48.6875 131.835938 46.921875 131 45.195312 130.074219 C 43.46875 129.152344 41.792969 128.148438 40.164062 127.058594 C 38.535156 125.972656 36.964844 124.808594 35.453125 123.566406 C 33.941406 122.324219 32.492188 121.011719 31.105469 119.628906 C 29.722656 118.242188 28.410156 116.792969 27.167969 115.28125 C 25.925781 113.769531 24.761719 112.199219 23.675781 110.570312 C 22.585938 108.941406 21.582031 107.265625 20.660156 105.539062 C 19.734375 103.8125 18.898438 102.046875 18.152344 100.238281 C 17.402344 98.429688 16.742188 96.585938 16.175781 94.714844 C 15.605469 92.839844 15.132812 90.945312 14.75 89.023438 C 14.367188 87.105469 14.082031 85.171875 13.890625 83.222656 C 13.695312 81.273438 13.601562 79.320312 13.601562 77.363281 C 13.601562 75.40625 13.695312 73.453125 13.890625 71.507812 C 14.082031 69.558594 14.367188 67.625 14.75 65.703125 C 15.132812 63.785156 15.605469 61.886719 16.175781 60.015625 C 16.742188 58.140625 17.402344 56.300781 18.152344 54.492188 C 18.898438 52.683594 19.734375 50.914062 20.660156 49.1875 C 21.582031 47.464844 22.585938 45.785156 23.675781 44.160156 C 24.761719 42.53125 25.925781 40.960938 27.167969 39.445312 C 28.410156 37.933594 29.722656 36.484375 31.105469 35.101562 C 32.492188 33.71875 33.941406 32.402344 35.453125 31.164062 C 36.964844 29.921875 38.535156 28.753906 40.164062 27.667969 C 41.792969 26.582031 43.46875 25.574219 45.195312 24.652344 C 46.921875 23.730469 48.6875 22.894531 50.496094 22.144531 C 52.304688 21.394531 54.148438 20.738281 56.019531 20.167969 C 57.894531 19.601562 59.789062 19.125 61.710938 18.742188 C 63.628906 18.363281 65.5625 18.074219 67.511719 17.882812 C 69.460938 17.691406 71.414062 17.59375 73.371094 17.59375 C 75.328125 17.59375 77.28125 17.691406 79.226562 17.882812 C 81.175781 18.074219 83.109375 18.363281 85.03125 18.742188 C 86.949219 19.125 88.847656 19.601562 90.71875 20.167969 C 92.59375 20.738281 94.433594 21.394531 96.242188 22.144531 C 98.050781 22.894531 99.820312 23.730469 101.546875 24.652344 C 103.269531 25.574219 104.949219 26.582031 106.574219 27.667969 C 108.203125 28.753906 109.773438 29.921875 111.289062 31.164062 C 112.800781 32.402344 114.25 33.71875 115.632812 35.101562 C 117.015625 36.484375 118.332031 37.933594 119.570312 39.445312 C 120.8125 40.960938 121.980469 42.53125 123.066406 44.160156 C 124.152344 45.785156 125.160156 47.464844 126.082031 49.1875 C 127.003906 50.914062 127.839844 52.683594 128.589844 54.492188 C 129.339844 56.300781 129.996094 58.140625 130.566406 60.015625 C 131.132812 61.886719 131.609375 63.785156 131.992188 65.703125 C 132.371094 67.625 132.660156 69.558594 132.851562 71.507812 C 133.042969 73.453125 133.140625 75.40625 133.140625 77.363281 Z M 133.140625 77.363281 " fill-opacity="1" fill-rule="nonzero"/></g><g clip-path="url(#912b625b4c)"><path fill="#1b3067" d="M 73.371094 131.433594 C 43.53125 131.433594 19.300781 107.203125 19.300781 77.363281 C 19.300781 47.523438 43.53125 23.296875 73.371094 23.296875 C 103.210938 23.296875 127.4375 47.523438 127.4375 77.363281 C 127.4375 107.203125 103.210938 131.433594 73.371094 131.433594 Z M 73.371094 24.632812 C 44.242188 24.632812 20.636719 48.238281 20.636719 77.363281 C 20.636719 106.492188 44.332031 130.097656 73.371094 130.097656 C 102.496094 130.097656 126.101562 106.402344 126.101562 77.363281 C 126.101562 48.238281 102.496094 24.632812 73.371094 24.632812 Z M 73.371094 24.632812 " fill-opacity="1" fill-rule="nonzero"/></g><g clip-path="url(#bd97ff5e9a)"><g clip-path="url(#666e617c28)"><g clip-path="url(#b93bfd383a)"><path fill="#19f7ee" d="M 80.378906 125.984375 C 80.019531 126.035156 79.652344 126.089844 79.269531 126.144531 C 73.527344 126.941406 67.691406 127.414062 61.933594 127.542969 C 43.898438 127.945312 31.386719 124.921875 31.269531 124.890625 L 29.414062 124.4375 L 29.171875 122.488281 C 27.847656 111.839844 22.398438 95.535156 17.894531 85.925781 C 13.53125 76.628906 13.253906 66.421875 17.089844 56.414062 C 20.199219 48.296875 20.933594 39.617188 19.789062 24.382812 C 19.335938 18.339844 19.941406 13.726562 21.578125 10.667969 C 22.730469 8.511719 24.875 7.023438 27.3125 6.683594 C 28.554688 6.511719 29.828125 6.648438 31 7.074219 C 43.457031 11.628906 75.285156 33.449219 79.300781 36.222656 C 81.300781 37.09375 87.511719 39.871094 90.113281 41.839844 C 92.910156 43.957031 94.375 49.601562 95.03125 53.019531 C 116.445312 71.996094 130.230469 105.691406 130.367188 106.03125 L 131.304688 108.363281 L 129.125 109.582031 C 114.898438 117.550781 99.222656 122.957031 82.53125 125.652344 Z M 80.378906 125.984375 " fill-opacity="1" fill-rule="nonzero"/></g></g></g><g clip-path="url(#52b62ce16c)"><g clip-path="url(#d0ba52f4a9)"><g clip-path="url(#72efe6c924)"><path fill="#eaeaea" d="M 82.832031 60.585938 C 79.378906 56.082031 73.859375 50.640625 66.796875 44.765625 C 66.796875 44.765625 66.792969 44.769531 66.792969 44.765625 C 66.792969 44.765625 66.792969 44.761719 66.789062 44.761719 C 67.671875 46.921875 68.878906 50.09375 69.109375 51.75 C 69.476562 54.386719 67.273438 62.40625 67.183594 62.75 L 66.109375 66.644531 L 66.015625 62.601562 C 66.011719 62.550781 65.886719 57.585938 64.847656 54.207031 C 63.859375 50.984375 61.089844 41.328125 60.671875 39.871094 C 54.679688 35.257812 48.273438 30.816406 42.886719 27.539062 C 43.035156 29.019531 43.328125 31.5625 43.691406 33.066406 C 44.265625 35.421875 42.332031 43.082031 42.109375 43.949219 L 41.203125 47.476562 L 40.941406 43.84375 C 40.933594 43.757812 40.289062 35.070312 38.902344 32.464844 C 37.605469 30.023438 37.652344 25.878906 37.707031 24.585938 C 35.9375 23.660156 34.496094 23.019531 33.4375 22.691406 C 31.082031 21.964844 29.015625 22.066406 27.292969 23 C 24.691406 24.40625 23.644531 27.289062 23.464844 27.824219 L 23.464844 27.828125 C 24.257812 41.386719 23.34375 49.703125 20.300781 57.644531 C 16.808594 66.753906 17.054688 76.03125 21.007812 84.464844 C 25.566406 94.183594 31.082031 110.648438 32.53125 121.648438 C 34.742188 122.144531 46.023438 124.460938 61.894531 124.101562 C 67.589844 123.972656 74.304688 123.480469 81.679688 122.304688 C 81.683594 122.304688 81.683594 122.304688 81.683594 122.304688 C 93.035156 118.511719 100.808594 112.105469 104.785156 103.265625 C 105.269531 102.1875 105.6875 101.101562 106.042969 100.007812 C 99.410156 87.335938 89.621094 69.4375 82.832031 60.585938 Z M 51.804688 39.347656 C 52.683594 39.566406 53.515625 39.992188 54.242188 40.539062 L 54.753906 40.984375 C 54.933594 41.132812 55.074219 41.308594 55.226562 41.472656 C 55.539062 41.796875 55.785156 42.171875 56.03125 42.550781 C 56.160156 42.730469 56.25 42.933594 56.351562 43.136719 C 56.449219 43.332031 56.539062 43.535156 56.628906 43.734375 C 56.773438 44.152344 56.902344 44.578125 56.992188 45.011719 C 56.667969 44.691406 56.402344 44.359375 56.128906 44.039062 C 55.984375 43.882812 55.839844 43.730469 55.703125 43.574219 C 51.949219 44.699219 50.699219 39.96875 50.671875 39.867188 C 50.191406 39.675781 49.691406 39.507812 49.152344 39.378906 C 49.996094 39.089844 50.929688 39.132812 51.804688 39.347656 Z M 89.402344 102.914062 C 78.835938 107.34375 69.59375 109.617188 61.964844 110.679688 C 56.28125 111.46875 51.496094 111.589844 47.722656 111.425781 C 38.097656 111.011719 32.921875 108.785156 32.703125 108.6875 L 32.476562 108.585938 L 32.386719 108.355469 C 28.476562 98.226562 27.117188 94.84375 26.304688 92.820312 C 25.265625 90.234375 25.050781 89.695312 21.519531 80.136719 C 17.683594 69.734375 21.496094 64.207031 25.371094 61.40625 C 27.503906 59.855469 30.105469 58.902344 32.882812 58.640625 C 41.902344 57.792969 50.507812 59.566406 58.46875 63.902344 C 64.816406 67.367188 70.765625 72.460938 76.144531 79.046875 C 85.285156 90.234375 89.6875 102.039062 89.730469 102.15625 L 89.929688 102.695312 Z M 88.164062 102.140625 C 70.34375 109.476562 56.429688 110.597656 47.851562 110.238281 C 40.011719 109.910156 35.101562 108.316406 33.640625 107.773438 L 34.851562 102.507812 L 39.089844 108.511719 L 41.757812 102.320312 L 46.652344 109.214844 L 49.425781 102.265625 L 54.09375 109.296875 L 57.695312 101.71875 L 63.125 108.195312 L 66.898438 100.582031 L 72.460938 106.648438 L 75.84375 98.78125 L 80.953125 104.179688 L 83.460938 96.9375 Z M 79.238281 90.980469 L 78.386719 84.859375 L 72.714844 84.9375 L 71.347656 77.617188 L 64.746094 79.171875 L 62.59375 70.589844 L 55.136719 74.34375 L 50.65625 65.402344 L 44.949219 72.144531 L 39.453125 63.242188 L 34.882812 72.527344 L 28.410156 63.789062 L 27.121094 73.847656 L 22.320312 69.765625 L 23.273438 76.617188 L 21.457031 75.496094 C 20.15625 68.492188 23.089844 64.535156 26.070312 62.371094 C 28.035156 60.949219 30.433594 60.070312 33 59.828125 C 52.878906 57.964844 66.925781 69.648438 75.207031 79.777344 C 78.390625 83.671875 80.992188 87.640625 83.027344 91.152344 Z M 79.238281 90.980469 " fill-opacity="1" fill-rule="nonzero"/></g></g></g><g clip-path="url(#fc5295e4e4)"><g clip-path="url(#e735555190)"><g clip-path="url(#370b92a07a)"><path fill="#1b3067" d="M 89.976562 46.304688 L 92.984375 55.207031 C 104.28125 65.238281 107.542969 72.800781 107.542969 72.800781 L 110.523438 94.195312 L 106.523438 98.367188 C 105.996094 83.542969 94.765625 66.332031 94.765625 66.332031 L 100.257812 69.480469 C 93.585938 60.828125 86.066406 57.40625 86.066406 57.40625 C 91.21875 53.390625 88.046875 44.585938 88.046875 44.585938 C 89.789062 44.761719 89.976562 46.304688 89.976562 46.304688 Z M 51.578125 86.425781 C 50.972656 88.558594 49.894531 92.726562 49.421875 96.804688 C 49.421875 96.804688 45.984375 90.246094 46.726562 82.726562 C 46.429688 82.535156 46.132812 82.351562 45.835938 82.171875 C 45.414062 83.570312 43.945312 88.65625 43.367188 93.628906 C 43.367188 93.628906 39.980469 87.171875 40.652344 79.726562 C 40.332031 79.617188 40.007812 79.523438 39.683594 79.433594 C 39.066406 81.683594 38.125 85.492188 37.691406 89.234375 C 37.691406 89.234375 35.28125 84.640625 34.929688 78.738281 C 34.710938 78.738281 34.492188 78.738281 34.273438 78.746094 C 28.46875 78.949219 24.863281 82.367188 23.96875 83.320312 C 26.242188 89.472656 26.53125 90.175781 27.414062 92.382812 C 28.171875 94.28125 29.417969 97.382812 32.800781 106.121094 L 34.289062 99.648438 L 38.839844 106.097656 L 41.503906 99.910156 L 46.359375 106.742188 L 49.167969 99.710938 L 52.371094 104.546875 C 53.792969 97.570312 55.210938 91.667969 55.550781 90.261719 C 54.214844 88.855469 52.890625 87.578125 51.578125 86.425781 Z M 73.910156 35.867188 L 68.980469 36.550781 L 79.527344 40.085938 Z M 23.300781 25.351562 C 23.300781 25.351562 24.550781 18.140625 28.21875 17.4375 C 31.882812 16.730469 37.246094 19.796875 37.246094 19.796875 C 37.246094 19.796875 33.976562 15.882812 29.136719 14.40625 C 29.136719 14.40625 33.152344 14.660156 36.0625 16.347656 C 36.0625 16.347656 34.265625 12.300781 30.710938 10.648438 L 28.976562 9.359375 C 28.976562 9.359375 24.226562 9.902344 23.367188 13.855469 C 22.503906 17.804688 22.25 21.023438 22.25 21.023438 Z M 64.753906 43.097656 L 64.730469 42.949219 L 64.730469 42.941406 L 64.691406 42.859375 L 64.71875 42.6875 C 64.726562 42.617188 64.984375 40.953125 66.007812 38.601562 C 66.257812 38.023438 66.289062 37.378906 66.101562 36.785156 L 63.941406 30.066406 C 62.417969 29.066406 60.828125 28.03125 59.1875 26.972656 C 60.699219 30.003906 63.132812 35.179688 62.863281 36.660156 C 62.59375 38.097656 62.082031 39.148438 61.832031 39.601562 C 62.304688 41.25 65.011719 50.6875 65.984375 53.859375 C 66.460938 55.417969 66.753906 57.253906 66.933594 58.835938 C 67.53125 56.226562 68.105469 53.1875 67.925781 51.914062 C 67.617188 49.675781 65.222656 44.085938 64.820312 43.152344 Z M 42.230469 16.554688 C 41.183594 15.949219 40.164062 15.375 39.171875 14.828125 L 39.167969 14.828125 C 41.367188 21.101562 41 21.570312 40.792969 21.828125 C 40.445312 22.261719 39.257812 23.941406 38.902344 24.441406 C 38.863281 25.328125 38.730469 29.609375 39.949219 31.910156 C 40.839844 33.578125 41.429688 37.296875 41.765625 40.128906 C 42.3125 37.515625 42.808594 34.484375 42.53125 33.347656 C 41.976562 31.050781 41.601562 26.65625 41.582031 26.46875 L 41.570312 26.316406 L 41.632812 26.179688 C 41.644531 26.148438 42.828125 23.414062 43.207031 21.21875 C 43.296875 20.71875 43.28125 20.183594 43.207031 19.65625 C 43.019531 18.292969 42.4375 16.988281 42.230469 16.554688 Z M 42.230469 16.554688 " fill-opacity="1" fill-rule="nonzero"/></g></g></g><g clip-path="url(#302431221c)"><g clip-path="url(#2166c78d51)"><g clip-path="url(#e28db98c59)"><path fill="#979797" d="M 106.8125 99.660156 C 106.8125 99.660156 104.921875 114.226562 92.292969 119.679688 C 79.664062 125.128906 68.707031 123.785156 68.707031 123.785156 C 82.179688 123.042969 90.425781 114.28125 90.425781 114.28125 C 88.652344 115.078125 84.664062 115.710938 84.664062 115.710938 C 88.085938 114.371094 91.261719 109.605469 91.261719 109.605469 C 84.664062 115.710938 75.566406 116.820312 75.566406 116.820312 C 88.875 111.039062 89.929688 102.699219 89.929688 102.699219 L 89.648438 102.175781 L 73.921875 107.8125 L 75.84375 98.78125 L 83.039062 95.035156 L 87.8125 98.757812 L 85.03125 93.578125 L 84.117188 92.085938 L 80.445312 93.117188 L 64.746094 79.167969 L 69.253906 76.519531 C 67.042969 71.328125 64.761719 69.507812 64.761719 69.507812 C 69.136719 71.636719 74.519531 77.785156 78.617188 83.097656 L 78.335938 82.644531 L 73.582031 76.070312 C 83.730469 86.445312 91.492188 96.371094 91.492188 96.371094 C 85.640625 83.984375 79.953125 79.273438 79.953125 79.273438 C 81.226562 71.554688 79.648438 66.902344 79.648438 66.902344 C 83.550781 72.015625 89.472656 81.878906 89.472656 81.878906 C 83.285156 64.824219 70.574219 47.996094 70.574219 47.996094 L 76.796875 52.996094 L 83.648438 60.527344 L 95.589844 79.847656 Z M 62.804688 118.609375 C 70.078125 116.8125 76.5625 111.667969 76.5625 111.667969 C 50.582031 120 35.207031 114.105469 35.207031 114.105469 C 51.980469 128.722656 70.648438 117.519531 70.648438 117.519531 C 67.15625 118.320312 62.804688 118.609375 62.804688 118.609375 Z M 55.230469 57.726562 C 55.230469 57.726562 45.316406 50.441406 37.914062 47.945312 C 37.914062 47.945312 41.160156 48.054688 46.097656 48.9375 C 46.097656 48.9375 38.523438 41.058594 28.148438 42.019531 C 28.148438 42.019531 26.636719 33.414062 29.585938 32.0625 C 32.53125 30.710938 35.691406 31.996094 35.691406 31.996094 C 35.691406 31.996094 30.777344 25.308594 23.589844 30.308594 L 23.210938 35.558594 L 22.148438 49.027344 L 19.472656 58.121094 L 17.703125 63.261719 L 18.109375 66.203125 C 18.109375 66.203125 20.808594 54.632812 30.40625 52.601562 C 40.003906 50.574219 55.230469 57.726562 55.230469 57.726562 Z M 55.230469 57.726562 " fill-opacity="1" fill-rule="nonzero"/></g></g></g><g clip-path="url(#0933aa7573)"><g clip-path="url(#3f25d5530c)"><g clip-path="url(#f3316f7b32)"><path fill="#0d1016" d="M 128.535156 106.773438 C 128.398438 106.433594 114.539062 72.601562 93.210938 54.058594 C 92.925781 52.429688 91.558594 45.417969 88.921875 43.421875 C 86.328125 41.457031 79.257812 38.363281 78.339844 37.964844 C 74.621094 35.398438 42.667969 13.449219 30.328125 8.941406 C 27.667969 7.96875 24.65625 9.113281 23.320312 11.605469 C 21.863281 14.324219 21.339844 18.574219 21.761719 24.230469 C 22.929688 39.789062 22.164062 48.703125 18.9375 57.125 C 15.300781 66.617188 15.558594 76.285156 19.6875 85.085938 C 24.253906 94.832031 29.789062 111.398438 31.136719 122.246094 L 31.210938 122.832031 L 31.78125 122.972656 C 31.894531 123.003906 44.101562 125.953125 61.886719 125.558594 C 67.566406 125.433594 73.324219 124.96875 78.996094 124.179688 C 79.972656 124.042969 80.867188 123.910156 81.722656 123.769531 L 81.742188 123.828125 L 82.039062 123.722656 C 98.566406 121.074219 114.082031 115.730469 128.160156 107.851562 L 128.820312 107.484375 Z M 61.886719 123.839844 C 46.417969 124.1875 35.273438 121.980469 32.765625 121.433594 C 31.273438 110.421875 25.75 93.96875 21.242188 84.355469 C 17.316406 75.988281 17.074219 66.785156 20.539062 57.742188 C 23.613281 49.710938 24.511719 41.332031 23.726562 27.863281 C 23.945312 27.21875 24.980469 24.550781 27.414062 23.230469 C 29.070312 22.332031 31.070312 22.238281 33.355469 22.945312 C 34.359375 23.253906 35.734375 23.863281 37.433594 24.746094 C 37.390625 26.167969 37.386719 30.183594 38.667969 32.589844 C 40.03125 35.148438 40.667969 43.777344 40.675781 43.863281 L 41.054688 49.097656 L 42.363281 44.015625 C 42.585938 43.144531 44.535156 35.421875 43.945312 33.003906 C 43.613281 31.628906 43.34375 29.351562 43.203125 28.039062 C 48.445312 31.261719 54.695312 35.605469 60.441406 40.027344 C 61.085938 42.277344 63.664062 51.25 64.59375 54.285156 C 65.625 57.644531 65.75 62.558594 65.746094 62.609375 L 65.882812 68.441406 L 67.429688 62.820312 C 67.667969 61.960938 69.730469 54.335938 69.363281 51.714844 C 69.164062 50.28125 68.265625 47.777344 67.421875 45.640625 C 74.070312 51.230469 79.3125 56.445312 82.617188 60.75 C 89.292969 69.453125 98.871094 86.894531 105.75 100.03125 C 105.398438 101.101562 104.992188 102.152344 104.539062 103.160156 C 100.597656 111.929688 92.882812 118.285156 81.617188 122.054688 C 75.097656 123.085938 68.457031 123.6875 61.886719 123.839844 Z M 29.738281 10.554688 C 31.667969 11.257812 34.238281 12.472656 37.386719 14.15625 C 38.527344 17.332031 39.429688 20.296875 39.511719 21.101562 C 39.125 21.609375 38.40625 22.621094 38.046875 23.121094 C 36.328125 22.238281 34.917969 21.625 33.859375 21.300781 C 32.222656 20.792969 30.691406 20.640625 29.28125 20.835938 C 28.328125 20.96875 27.429688 21.261719 26.59375 21.714844 C 25.398438 22.363281 24.363281 23.3125 23.503906 24.542969 C 23.496094 24.394531 23.484375 24.25 23.472656 24.101562 C 23.074219 18.773438 23.53125 14.839844 24.828125 12.417969 C 25.765625 10.675781 27.875 9.875 29.738281 10.554688 Z M 44.359375 18.09375 C 48.054688 20.269531 52.300781 22.886719 56.996094 25.878906 C 59.332031 30.355469 61.230469 34.746094 61.421875 36.113281 C 61.445312 36.273438 61.4375 36.351562 61.429688 36.390625 C 61.292969 37.136719 61.078125 37.757812 60.886719 38.207031 C 54.929688 33.652344 48.535156 29.246094 43.253906 26.0625 C 43.625 25.128906 44.34375 23.1875 44.644531 21.46875 C 44.8125 20.503906 44.714844 19.371094 44.359375 18.09375 Z M 65.765625 38.492188 C 64.714844 40.917969 64.460938 42.632812 64.460938 42.644531 L 64.421875 42.894531 L 64.476562 43.019531 L 64.511719 43.234375 L 64.609375 43.316406 C 65.125 44.511719 67.375 49.824219 67.671875 51.953125 C 67.789062 52.804688 67.554688 54.683594 67.003906 57.3125 C 66.800781 55.957031 66.542969 54.773438 66.242188 53.78125 C 65.273438 50.632812 62.554688 41.15625 62.117188 39.632812 C 62.367188 39.171875 62.863281 38.121094 63.128906 36.710938 C 63.382812 35.339844 61.578125 31.230469 59.851562 27.710938 C 61.246094 28.613281 62.519531 29.441406 63.726562 30.238281 L 65.855469 36.867188 C 66.019531 37.398438 65.988281 37.976562 65.765625 38.492188 Z M 42.953125 21.175781 C 42.613281 23.144531 41.601562 25.585938 41.398438 26.070312 L 41.308594 26.269531 L 41.328125 26.527344 C 41.425781 27.617188 41.777344 31.332031 42.28125 33.40625 C 42.460938 34.152344 42.296875 35.9375 41.820312 38.496094 C 41.464844 35.972656 40.929688 33.1875 40.1875 31.785156 C 39.027344 29.601562 39.121094 25.515625 39.164062 24.527344 L 39.277344 24.371094 C 39.738281 23.722656 40.699219 22.367188 41 21.992188 C 41.277344 21.652344 41.648438 21.191406 39.648438 15.390625 C 40.507812 15.871094 41.351562 16.351562 42.035156 16.742188 C 42.277344 17.265625 42.78125 18.453125 42.953125 19.695312 C 43.027344 20.246094 43.027344 20.742188 42.953125 21.175781 Z M 106.4375 97.640625 C 99.730469 84.894531 90.5 68.191406 83.984375 59.699219 C 79.25 53.527344 71.753906 46.925781 66.25 42.4375 C 66.308594 42.183594 66.40625 41.785156 66.558594 41.277344 C 66.769531 40.597656 67.03125 39.890625 67.339844 39.183594 C 67.730469 38.285156 67.78125 37.277344 67.480469 36.339844 L 66.003906 31.738281 C 69.316406 33.925781 72.125 35.820312 73.941406 37.050781 C 75.753906 38.277344 76.957031 39.105469 77.320312 39.355469 L 77.453125 39.449219 L 77.578125 39.515625 C 77.65625 39.546875 85.316406 42.851562 87.882812 44.796875 C 89.625 46.117188 91.066406 51.539062 91.5625 54.640625 L 91.613281 54.953125 L 91.851562 55.160156 C 95.839844 58.597656 99.84375 62.835938 103.761719 67.757812 C 104.472656 69.496094 109.9375 83.667969 106.4375 97.640625 Z M 73.824219 44.296875 C 74.285156 45.214844 78.429688 53.269531 82.722656 53.152344 C 82.902344 53.148438 83.09375 53.132812 83.277344 53.109375 C 86.542969 52.652344 87.574219 49.046875 87.664062 47.203125 L 87.695312 46.507812 L 72.972656 42.59375 Z M 50.453125 40.066406 C 50.617188 40.613281 51.324219 42.664062 52.933594 43.578125 C 53.738281 44.03125 54.636719 44.128906 55.617188 43.875 C 55.71875 43.988281 55.824219 44.101562 55.929688 44.214844 C 55.996094 44.292969 56.0625 44.371094 56.128906 44.453125 C 56.335938 44.699219 56.550781 44.953125 56.804688 45.199219 L 57.414062 45.796875 L 57.246094 44.960938 C 57.167969 44.574219 57.054688 44.171875 56.863281 43.632812 C 56.773438 43.425781 56.683594 43.222656 56.582031 43.019531 L 56.53125 42.917969 C 56.445312 42.746094 56.359375 42.566406 56.246094 42.410156 C 55.992188 42.015625 55.738281 41.628906 55.417969 41.296875 C 55.378906 41.257812 55.34375 41.214844 55.308594 41.175781 C 55.191406 41.042969 55.066406 40.910156 54.925781 40.789062 L 54.398438 40.332031 C 53.617188 39.742188 52.742188 39.3125 51.863281 39.09375 C 50.820312 38.839844 49.875 38.851562 49.0625 39.132812 L 48.207031 39.429688 L 49.085938 39.640625 C 49.542969 39.75 49.992188 39.886719 50.453125 40.066406 Z M 76.351562 78.882812 C 70.949219 72.273438 64.980469 67.152344 58.597656 63.671875 C 50.589844 59.304688 41.933594 57.527344 32.863281 58.378906 C 30.035156 58.644531 27.394531 59.617188 25.21875 61.191406 C 21.269531 64.050781 17.382812 69.675781 21.277344 80.226562 C 24.8125 89.808594 25.027344 90.347656 26.0625 92.917969 L 26.136719 93.109375 C 26.96875 95.175781 28.351562 98.632812 32.140625 108.449219 L 32.269531 108.785156 L 32.601562 108.929688 C 33.160156 109.171875 38.328125 111.285156 47.710938 111.691406 C 52.230469 111.882812 57.035156 111.632812 62 110.941406 C 70.875 109.703125 80.128906 107.085938 89.503906 103.160156 L 90.265625 102.847656 L 89.980469 102.070312 C 89.9375 101.949219 85.507812 90.097656 76.351562 78.882812 Z M 87.714844 102.039062 C 85.449219 102.964844 83.246094 103.789062 81.113281 104.523438 L 83.566406 97.449219 Z M 39.175781 108.980469 L 41.816406 102.859375 L 46.722656 109.769531 L 49.488281 102.835938 L 54.132812 109.832031 L 57.757812 102.203125 L 63.183594 108.675781 L 66.964844 101.046875 L 72.515625 107.101562 C 62.082031 109.773438 53.707031 110.222656 47.863281 109.976562 C 44.371094 109.828125 41.453125 109.425781 39.175781 108.980469 Z M 39.085938 108.960938 C 36.53125 108.460938 34.789062 107.902344 33.953125 107.605469 L 34.976562 103.140625 Z M 33.023438 60.09375 C 52.785156 58.238281 66.757812 69.867188 75.003906 79.949219 C 76.207031 81.425781 77.386719 82.976562 78.523438 84.589844 L 72.929688 84.667969 L 71.554688 77.296875 L 64.9375 78.851562 L 62.765625 70.203125 L 55.253906 73.984375 L 50.714844 64.925781 L 44.980469 71.695312 L 39.421875 62.699219 L 34.839844 72.027344 L 28.230469 63.109375 L 26.917969 73.335938 L 21.960938 69.117188 L 22.933594 76.097656 L 21.691406 75.332031 C 20.449219 68.417969 23.464844 64.585938 26.222656 62.585938 C 28.148438 61.195312 30.5 60.332031 33.023438 60.09375 Z M 79.46875 90.726562 L 78.636719 84.757812 C 80 86.707031 81.3125 88.746094 82.554688 90.871094 Z M 34.285156 79.007812 C 34.414062 79.003906 34.550781 79 34.683594 79 C 35.085938 84.773438 37.433594 89.308594 37.457031 89.355469 L 37.851562 90.109375 L 37.949219 89.261719 C 38.355469 85.761719 39.203125 82.207031 39.863281 79.757812 C 40.042969 79.808594 40.210938 79.863281 40.367188 79.910156 C 39.78125 87.261719 43.097656 93.683594 43.132812 93.75 L 43.527344 94.503906 L 43.625 93.65625 C 44.15625 89.074219 45.464844 84.34375 45.988281 82.574219 C 46.132812 82.664062 46.289062 82.757812 46.445312 82.859375 C 45.765625 90.304688 49.148438 96.863281 49.1875 96.925781 L 49.578125 97.679688 L 49.675781 96.835938 C 50.121094 93.015625 51.101562 89.113281 51.710938 86.898438 C 52.875 87.933594 54.066406 89.085938 55.257812 90.335938 C 54.835938 92.085938 53.539062 97.511719 52.234375 103.871094 L 49.101562 99.148438 L 46.285156 106.195312 L 41.441406 99.367188 L 38.773438 105.550781 L 34.15625 99.003906 L 32.730469 105.214844 C 29.726562 97.46875 28.5 94.398438 27.757812 92.542969 L 27.632812 92.242188 C 26.769531 90.089844 26.476562 89.347656 24.261719 83.375 C 25.359375 82.261719 28.824219 79.199219 34.285156 79.007812 Z M 80.960938 104.574219 C 78.03125 105.578125 75.230469 106.40625 72.558594 107.089844 L 75.925781 99.253906 Z M 80.960938 104.574219 " fill-opacity="1" fill-rule="nonzero"/></g></g></g><g clip-path="url(#c40438a9fe)"><g clip-path="url(#b41feb1baf)"><path fill="#1b3067" d="M 2.96875 119.515625 L 143.835938 104.367188 L 146.949219 133.300781 L 6.078125 148.453125 L 2.96875 119.515625 " fill-opacity="1" fill-rule="nonzero"/></g></g><g clip-path="url(#96dad56bf7)"><g clip-path="url(#eca031d9a1)"><path fill="#1b3067" d="M 146.605469 133.023438 L 147.226562 132.957031 L 147.292969 133.578125 L 146.671875 133.644531 L 146.605469 133.023438 M 2.691406 119.859375 L 3.3125 119.792969 L 6.355469 148.105469 L 5.738281 148.175781 L 2.691406 119.859375 M 5.738281 148.175781 L 6.355469 148.105469 L 6.421875 148.730469 L 5.804688 148.796875 L 5.738281 148.175781 M 143.558594 104.710938 L 144.179688 104.644531 L 147.226562 132.957031 L 146.605469 133.023438 L 143.558594 104.710938 M 6.355469 148.105469 L 146.605469 133.023438 L 146.671875 133.644531 L 6.421875 148.730469 L 6.355469 148.105469 M 143.492188 104.089844 L 144.113281 104.023438 L 144.179688 104.644531 L 143.558594 104.710938 L 143.492188 104.089844 M 2.625 119.238281 L 3.246094 119.171875 L 3.3125 119.792969 L 2.691406 119.859375 L 2.625 119.238281 M 3.246094 119.171875 L 143.492188 104.089844 L 143.558594 104.710938 L 3.3125 119.792969 L 3.246094 119.171875 " fill-opacity="1" fill-rule="nonzero"/></g></g><g fill="#19f7ee" fill-opacity="1"><g transform="translate(11.973616, 142.090657)"><g><path d="M 3 -19.410156 L 5.773438 -19.707031 L 4.0625 -3.035156 L 7.734375 -3.429688 L 7.46875 -0.804688 L 1.027344 -0.109375 Z M 3 -19.410156 "/></g></g></g><g fill="#19f7ee" fill-opacity="1"><g transform="translate(25.090571, 140.679815)"><g><path d="M 8.644531 -4.851562 C 8.523438 -4.058594 8.289062 -3.332031 7.96875 -2.699219 C 7.636719 -2.144531 7.253906 -1.609375 6.703125 -1.164062 C 6.136719 -0.660156 5.414062 -0.375 4.515625 -0.277344 C 3.617188 -0.179688 2.925781 -0.316406 2.417969 -0.703125 C 1.941406 -1.039062 1.65625 -1.503906 1.5 -2.003906 C 1.253906 -2.574219 1.183594 -3.242188 1.25 -4.054688 L 2.417969 -15.425781 C 2.515625 -16.1875 2.726562 -16.886719 3.074219 -17.546875 C 3.402344 -18.101562 3.757812 -18.660156 4.308594 -19.105469 C 4.855469 -19.554688 5.597656 -19.894531 6.523438 -19.996094 C 7.445312 -20.09375 8.117188 -19.90625 8.59375 -19.570312 C 9.070312 -19.230469 9.382812 -18.746094 9.542969 -18.242188 C 9.78125 -17.695312 9.851562 -17.03125 9.8125 -16.21875 Z M 7.039062 -15.921875 C 7.085938 -16.445312 6.992188 -16.824219 6.78125 -17.089844 C 6.667969 -17.207031 6.476562 -17.261719 6.246094 -17.238281 C 5.757812 -17.1875 5.492188 -16.792969 5.347656 -16.441406 C 5.265625 -16.222656 5.214844 -15.984375 5.191406 -15.722656 L 4.023438 -4.355469 C 3.949219 -3.851562 4.042969 -3.445312 4.28125 -3.1875 C 4.394531 -3.070312 4.558594 -3.007812 4.789062 -3.035156 C 5.277344 -3.085938 5.550781 -3.425781 5.691406 -3.832031 C 5.75 -3.996094 5.828125 -4.234375 5.871094 -4.550781 Z M 7.039062 -15.921875 "/></g></g></g><g fill="#19f7ee" fill-opacity="1"><g transform="translate(39.721788, 139.106102)"><g><path d="M 0.257812 -0.0273438 L 5.082031 -19.632812 L 8.46875 -19.996094 L 9.34375 -1.003906 L 6.648438 -0.714844 L 6.515625 -4.597656 L 3.847656 -4.308594 L 2.953125 -0.316406 Z M 6.28125 -13.554688 L 6.253906 -14.046875 L 6.097656 -14.027344 L 5.972656 -13.523438 L 4.558594 -7.34375 L 6.457031 -7.550781 Z M 6.28125 -13.554688 "/></g></g></g><g fill="#19f7ee" fill-opacity="1"><g transform="translate(54.866314, 137.477178)"><g><path d="M 4.976562 -10.480469 L 4.828125 -11.347656 L 4.675781 -11.332031 L 3.566406 -0.382812 L 1.027344 -0.109375 L 3 -19.410156 L 5.464844 -19.671875 L 7.113281 -9.90625 L 7.257812 -9.039062 L 7.414062 -9.054688 L 8.546875 -20.003906 L 11.089844 -20.277344 L 9.113281 -0.980469 L 6.648438 -0.714844 Z M 4.976562 -10.480469 "/></g></g></g><g fill="#19f7ee" fill-opacity="1"><g transform="translate(70.549809, 135.790283)"><g><path d="M 7.0625 -14.730469 C 7.125 -15.359375 7.179688 -16.066406 7.042969 -16.597656 C 6.910156 -17.101562 6.667969 -17.441406 6.230469 -17.394531 C 5.515625 -17.289062 5.210938 -16.503906 5.097656 -15.375 C 5.039062 -14.71875 5.210938 -14.0625 5.574219 -13.375 C 5.933594 -12.6875 6.347656 -11.976562 6.816406 -11.222656 C 7.40625 -10.328125 7.894531 -9.390625 8.304688 -8.476562 C 8.691406 -7.554688 8.925781 -6.59375 8.804688 -5.542969 C 8.65625 -4.253906 8.371094 -3.054688 7.671875 -2.070312 C 6.972656 -1.085938 6.003906 -0.4375 4.464844 -0.273438 C 2.691406 -0.0820312 1.746094 -0.65625 1.304688 -1.644531 C 0.808594 -2.632812 0.871094 -3.988281 0.996094 -5.457031 L 3.742188 -6.011719 C 3.648438 -5.195312 3.605469 -4.386719 3.746094 -3.804688 C 3.890625 -3.195312 4.136719 -2.808594 4.730469 -2.871094 C 5.550781 -2.960938 5.917969 -3.882812 6.070312 -5.121094 C 6.132812 -5.75 5.925781 -6.453125 5.566406 -7.167969 C 5.46875 -7.339844 5.371094 -7.535156 5.273438 -7.707031 C 5.175781 -7.878906 5.078125 -8.078125 4.980469 -8.246094 C 4.761719 -8.613281 4.511719 -9.003906 4.257812 -9.417969 C 4.007812 -9.832031 3.753906 -10.246094 3.496094 -10.710938 C 2.953125 -11.640625 2.617188 -12.589844 2.4375 -13.558594 C 2.308594 -14.035156 2.328125 -14.558594 2.375 -15.082031 C 2.472656 -16.132812 2.816406 -17.285156 3.519531 -18.21875 C 4.175781 -19.121094 5.140625 -19.820312 6.445312 -19.988281 C 8.164062 -20.195312 9.03125 -19.589844 9.472656 -18.625 C 9.890625 -17.628906 9.925781 -16.363281 9.808594 -15.285156 Z M 7.0625 -14.730469 "/></g></g></g><g fill="#19f7ee" fill-opacity="1"><g transform="translate(84.898701, 134.246936)"><g><path d="M 6.816406 -9.042969 L 4.660156 -8.8125 L 3.800781 -0.410156 L 1.027344 -0.109375 L 3 -19.410156 L 5.773438 -19.707031 L 4.945312 -11.722656 L 7.101562 -11.957031 L 7.929688 -19.9375 L 10.703125 -20.238281 L 8.726562 -0.9375 L 5.957031 -0.640625 Z M 6.816406 -9.042969 "/></g></g></g><g fill="#19f7ee" fill-opacity="1"><g transform="translate(100.197217, 132.601449)"><g><path d="M 0.257812 -0.0273438 L 5.082031 -19.632812 L 8.46875 -19.996094 L 9.34375 -1.003906 L 6.648438 -0.714844 L 6.515625 -4.597656 L 3.847656 -4.308594 L 2.953125 -0.316406 Z M 6.28125 -13.554688 L 6.253906 -14.046875 L 6.097656 -14.027344 L 5.972656 -13.523438 L 4.558594 -7.34375 L 6.457031 -7.550781 Z M 6.28125 -13.554688 "/></g></g></g><g fill="#19f7ee" fill-opacity="1"><g transform="translate(115.34174, 130.972525)"><g><path d="M 5.980469 -0.644531 L 5.355469 -8.625 L 4.613281 -8.546875 L 3.800781 -0.410156 L 1.027344 -0.109375 L 3 -19.410156 L 5.773438 -19.707031 C 9.085938 -20.0625 10.285156 -18.320312 9.925781 -14.648438 C 9.71875 -12.730469 9.054688 -10.945312 7.925781 -10.097656 L 8.753906 -0.941406 Z M 4.898438 -11.171875 C 5.285156 -11.214844 5.796875 -11.296875 6.242188 -11.734375 C 6.6875 -12.171875 7.105469 -12.890625 7.242188 -14.253906 C 7.382812 -15.621094 7.128906 -16.292969 6.753906 -16.644531 C 6.378906 -16.992188 5.863281 -16.9375 5.480469 -16.894531 Z M 4.898438 -11.171875 "/></g></g></g><g fill="#19f7ee" fill-opacity="1"><g transform="translate(130.152613, 129.379488)"><g><path d="M 5.773438 -19.707031 L 5.070312 -12.957031 L 5.175781 -12.96875 L 5.347656 -13.296875 L 8.316406 -19.980469 L 11.011719 -20.269531 L 7.804688 -13.640625 L 9.371094 -1.007812 L 6.675781 -0.71875 L 5.609375 -8.914062 L 5.570312 -9.296875 L 5.492188 -9.289062 L 5.304688 -8.878906 L 4.492188 -7.234375 L 3.800781 -0.410156 L 1.027344 -0.109375 L 3 -19.410156 Z M 5.773438 -19.707031 "/></g></g></g></svg>