<svg xmlns="http://www.w3.org/2000/svg" xmlns:xlink="http://www.w3.org/1999/xlink" width="500" zoomAndPan="magnify" viewBox="0 0 375 374.999991" height="500" preserveAspectRatio="xMidYMid meet" version="1.0"><defs><g/><clipPath id="0674ae9d7b"><path d="M 92.175781 55.109375 L 324.550781 55.109375 L 324.550781 337.828125 L 92.175781 337.828125 Z M 92.175781 55.109375 " clip-rule="nonzero"/></clipPath><clipPath id="bee0b14f6b"><path d="M 92.175781 68 L 312 68 L 312 325 L 92.175781 325 Z M 92.175781 68 " clip-rule="nonzero"/></clipPath><clipPath id="087cfdf778"><path d="M 43 29 L 322 29 L 322 316 L 43 316 Z M 43 29 " clip-rule="nonzero"/></clipPath><clipPath id="94752663d1"><path d="M 19.6875 36.765625 L 284.363281 -0.0820312 L 325.304688 294 L 60.628906 330.847656 Z M 19.6875 36.765625 " clip-rule="nonzero"/></clipPath><clipPath id="80cd1acc02"><path d="M 19.6875 36.765625 L 284.363281 -0.0820312 L 325.304688 294 L 60.628906 330.847656 Z M 19.6875 36.765625 " clip-rule="nonzero"/></clipPath><clipPath id="d465edb3a7"><path d="M 51 65 L 262 65 L 262 307 L 51 307 Z M 51 65 " clip-rule="nonzero"/></clipPath><clipPath id="868bcc8f43"><path d="M 19.6875 36.765625 L 284.363281 -0.0820312 L 325.304688 294 L 60.628906 330.847656 Z M 19.6875 36.765625 " clip-rule="nonzero"/></clipPath><clipPath id="024dfd2ffc"><path d="M 19.6875 36.765625 L 284.363281 -0.0820312 L 325.304688 294 L 60.628906 330.847656 Z M 19.6875 36.765625 " clip-rule="nonzero"/></clipPath><clipPath id="2cccd8f3cb"><path d="M 62 35 L 273 35 L 273 266 L 62 266 Z M 62 35 " clip-rule="nonzero"/></clipPath><clipPath id="d8cfc5dc19"><path d="M 19.6875 36.765625 L 284.363281 -0.0820312 L 325.304688 294 L 60.628906 330.847656 Z M 19.6875 36.765625 " clip-rule="nonzero"/></clipPath><clipPath id="deb0bbe94c"><path d="M 19.6875 36.765625 L 284.363281 -0.0820312 L 325.304688 294 L 60.628906 330.847656 Z M 19.6875 36.765625 " clip-rule="nonzero"/></clipPath><clipPath id="b1d647ef80"><path d="M 51 80 L 264 80 L 264 307 L 51 307 Z M 51 80 " clip-rule="nonzero"/></clipPath><clipPath id="3f281c0727"><path d="M 19.6875 36.765625 L 284.363281 -0.0820312 L 325.304688 294 L 60.628906 330.847656 Z M 19.6875 36.765625 " clip-rule="nonzero"/></clipPath><clipPath id="06f18473b8"><path d="M 19.6875 36.765625 L 284.363281 -0.0820312 L 325.304688 294 L 60.628906 330.847656 Z M 19.6875 36.765625 " clip-rule="nonzero"/></clipPath><clipPath id="0e60324911"><path d="M 48 33 L 316 33 L 316 311 L 48 311 Z M 48 33 " clip-rule="nonzero"/></clipPath><clipPath id="08fad4a7ac"><path d="M 19.6875 36.765625 L 284.363281 -0.0820312 L 325.304688 294 L 60.628906 330.847656 Z M 19.6875 36.765625 " clip-rule="nonzero"/></clipPath><clipPath id="a4fda1e418"><path d="M 19.6875 36.765625 L 284.363281 -0.0820312 L 325.304688 294 L 60.628906 330.847656 Z M 19.6875 36.765625 " clip-rule="nonzero"/></clipPath><clipPath id="1d7cddb0ba"><path d="M 16 260 L 359 260 L 359 366 L 16 366 Z M 16 260 " clip-rule="nonzero"/></clipPath><clipPath id="d21d49ff0a"><path d="M 15.851562 296.171875 L 352.144531 260.003906 L 359.734375 330.597656 L 23.441406 366.765625 Z M 15.851562 296.171875 " clip-rule="nonzero"/></clipPath><clipPath id="fb746b3328"><path d="M 15 260 L 360 260 L 360 367 L 15 367 Z M 15 260 " clip-rule="nonzero"/></clipPath><clipPath id="8ed0215e9d"><path d="M 15.851562 296.171875 L 352.144531 260.003906 L 359.734375 330.597656 L 23.441406 366.765625 Z M 15.851562 296.171875 " clip-rule="nonzero"/></clipPath></defs><g clip-path="url(#0674ae9d7b)"><path fill="#19f7ee" d="M 324.605469 196.46875 C 324.605469 198.78125 324.546875 201.09375 324.433594 203.40625 C 324.320312 205.714844 324.152344 208.023438 323.925781 210.324219 C 323.699219 212.628906 323.414062 214.921875 323.074219 217.210938 C 322.734375 219.5 322.339844 221.777344 321.886719 224.046875 C 321.4375 226.316406 320.929688 228.574219 320.367188 230.816406 C 319.804688 233.0625 319.191406 235.289062 318.519531 237.503906 C 317.847656 239.71875 317.121094 241.914062 316.339844 244.09375 C 315.5625 246.269531 314.730469 248.429688 313.84375 250.566406 C 312.960938 252.703125 312.023438 254.816406 311.03125 256.910156 C 310.042969 259 309.003906 261.066406 307.914062 263.105469 C 306.824219 265.144531 305.683594 267.160156 304.492188 269.144531 C 303.304688 271.128906 302.066406 273.082031 300.78125 275.003906 C 299.496094 276.929688 298.164062 278.820312 296.785156 280.675781 C 295.40625 282.535156 293.984375 284.359375 292.515625 286.148438 C 291.050781 287.9375 289.539062 289.6875 287.984375 291.402344 C 286.433594 293.113281 284.835938 294.789062 283.203125 296.425781 C 281.566406 298.0625 279.890625 299.65625 278.175781 301.210938 C 276.460938 302.765625 274.710938 304.273438 272.921875 305.742188 C 271.132812 307.210938 269.3125 308.632812 267.453125 310.011719 C 265.59375 311.390625 263.703125 312.722656 261.78125 314.007812 C 259.855469 315.292969 257.902344 316.527344 255.917969 317.71875 C 253.933594 318.90625 251.921875 320.046875 249.882812 321.136719 C 247.839844 322.226562 245.773438 323.269531 243.683594 324.257812 C 241.59375 325.246094 239.476562 326.183594 237.339844 327.070312 C 235.203125 327.953125 233.046875 328.785156 230.867188 329.566406 C 228.6875 330.34375 226.492188 331.070312 224.28125 331.742188 C 222.066406 332.414062 219.835938 333.03125 217.59375 333.59375 C 215.347656 334.15625 213.089844 334.660156 210.824219 335.113281 C 208.554688 335.566406 206.273438 335.960938 203.988281 336.300781 C 201.699219 336.640625 199.402344 336.921875 197.101562 337.148438 C 194.796875 337.375 192.492188 337.546875 190.179688 337.660156 C 187.871094 337.773438 185.558594 337.828125 183.246094 337.828125 C 180.929688 337.828125 178.621094 337.773438 176.308594 337.660156 C 173.996094 337.546875 171.691406 337.375 169.390625 337.148438 C 167.085938 336.921875 164.792969 336.640625 162.503906 336.300781 C 160.214844 335.960938 157.9375 335.566406 155.667969 335.113281 C 153.398438 334.660156 151.140625 334.15625 148.898438 333.59375 C 146.652344 333.03125 144.421875 332.414062 142.210938 331.742188 C 139.996094 331.070312 137.800781 330.34375 135.621094 329.566406 C 133.445312 328.785156 131.285156 327.953125 129.148438 327.070312 C 127.011719 326.183594 124.898438 325.246094 122.804688 324.257812 C 120.714844 323.269531 118.648438 322.226562 116.609375 321.136719 C 114.566406 320.046875 112.554688 318.90625 110.570312 317.71875 C 108.585938 316.527344 106.632812 315.292969 104.710938 314.007812 C 102.785156 312.722656 100.894531 311.390625 99.035156 310.011719 C 97.179688 308.632812 95.355469 307.210938 93.566406 305.742188 C 91.777344 304.273438 90.027344 302.765625 88.3125 301.210938 C 86.597656 299.65625 84.921875 298.0625 83.289062 296.425781 C 81.652344 294.789062 80.058594 293.113281 78.503906 291.402344 C 76.949219 289.6875 75.4375 287.9375 73.972656 286.148438 C 72.503906 284.359375 71.082031 282.535156 69.703125 280.675781 C 68.324219 278.820312 66.992188 276.929688 65.707031 275.003906 C 64.421875 273.082031 63.183594 271.128906 61.996094 269.144531 C 60.804688 267.160156 59.667969 265.144531 58.574219 263.105469 C 57.484375 261.066406 56.445312 259 55.457031 256.910156 C 54.46875 254.816406 53.53125 252.703125 52.644531 250.566406 C 51.757812 248.429688 50.925781 246.269531 50.148438 244.09375 C 49.367188 241.914062 48.644531 239.71875 47.972656 237.503906 C 47.300781 235.289062 46.683594 233.0625 46.121094 230.816406 C 45.558594 228.574219 45.050781 226.316406 44.601562 224.046875 C 44.148438 221.777344 43.753906 219.5 43.414062 217.210938 C 43.074219 214.921875 42.792969 212.628906 42.566406 210.324219 C 42.339844 208.023438 42.167969 205.714844 42.054688 203.40625 C 41.941406 201.09375 41.882812 198.78125 41.882812 196.46875 C 41.882812 194.15625 41.941406 191.84375 42.054688 189.53125 C 42.167969 187.222656 42.339844 184.914062 42.566406 182.613281 C 42.792969 180.3125 43.074219 178.015625 43.414062 175.726562 C 43.753906 173.4375 44.148438 171.160156 44.601562 168.890625 C 45.050781 166.621094 45.558594 164.367188 46.121094 162.121094 C 46.683594 159.878906 47.300781 157.648438 47.972656 155.433594 C 48.644531 153.222656 49.367188 151.023438 50.148438 148.847656 C 50.925781 146.667969 51.757812 144.511719 52.644531 142.375 C 53.53125 140.234375 54.46875 138.121094 55.457031 136.03125 C 56.445312 133.9375 57.484375 131.871094 58.574219 129.832031 C 59.667969 127.792969 60.804688 125.78125 61.996094 123.796875 C 63.183594 121.8125 64.421875 119.855469 65.707031 117.933594 C 66.992188 116.011719 68.324219 114.121094 69.703125 112.261719 C 71.082031 110.402344 72.503906 108.578125 73.972656 106.792969 C 75.4375 105.003906 76.949219 103.25 78.503906 101.539062 C 80.058594 99.824219 81.652344 98.148438 83.289062 96.511719 C 84.921875 94.875 86.597656 93.28125 88.3125 91.726562 C 90.027344 90.175781 91.777344 88.664062 93.566406 87.195312 C 95.355469 85.730469 97.179688 84.304688 99.035156 82.929688 C 100.894531 81.550781 102.785156 80.21875 104.710938 78.933594 C 106.632812 77.648438 108.585938 76.410156 110.570312 75.21875 C 112.554688 74.03125 114.566406 72.890625 116.609375 71.800781 C 118.648438 70.710938 120.714844 69.671875 122.804688 68.679688 C 124.898438 67.691406 127.011719 66.753906 129.148438 65.871094 C 131.285156 64.984375 133.445312 64.152344 135.621094 63.371094 C 137.800781 62.59375 139.996094 61.867188 142.210938 61.195312 C 144.421875 60.523438 146.652344 59.90625 148.898438 59.34375 C 151.140625 58.785156 153.398438 58.277344 155.667969 57.824219 C 157.9375 57.375 160.214844 56.980469 162.503906 56.640625 C 164.792969 56.300781 167.085938 56.015625 169.390625 55.789062 C 171.691406 55.5625 173.996094 55.394531 176.308594 55.28125 C 178.621094 55.164062 180.929688 55.109375 183.246094 55.109375 C 185.558594 55.109375 187.871094 55.164062 190.179688 55.28125 C 192.492188 55.394531 194.796875 55.5625 197.101562 55.789062 C 199.402344 56.015625 201.699219 56.300781 203.988281 56.640625 C 206.273438 56.980469 208.554688 57.375 210.824219 57.824219 C 213.089844 58.277344 215.347656 58.785156 217.59375 59.34375 C 219.835938 59.90625 222.066406 60.523438 224.28125 61.195312 C 226.492188 61.867188 228.6875 62.59375 230.867188 63.371094 C 233.046875 64.152344 235.203125 64.984375 237.339844 65.871094 C 239.476562 66.753906 241.59375 67.691406 243.683594 68.679688 C 245.773438 69.671875 247.839844 70.710938 249.882812 71.800781 C 251.921875 72.890625 253.933594 74.03125 255.917969 75.21875 C 257.902344 76.410156 259.855469 77.648438 261.78125 78.933594 C 263.703125 80.21875 265.59375 81.550781 267.453125 82.929688 C 269.3125 84.304688 271.132812 85.730469 272.921875 87.195312 C 274.710938 88.664062 276.460938 90.175781 278.175781 91.726562 C 279.890625 93.28125 281.566406 94.875 283.203125 96.511719 C 284.835938 98.148438 286.433594 99.824219 287.984375 101.539062 C 289.539062 103.25 291.050781 105.003906 292.515625 106.792969 C 293.984375 108.578125 295.40625 110.402344 296.785156 112.261719 C 298.164062 114.121094 299.496094 116.011719 300.78125 117.933594 C 302.066406 119.855469 303.304688 121.8125 304.492188 123.796875 C 305.683594 125.78125 306.824219 127.792969 307.914062 129.832031 C 309.003906 131.871094 310.042969 133.9375 311.03125 136.03125 C 312.023438 138.121094 312.960938 140.234375 313.84375 142.375 C 314.730469 144.511719 315.5625 146.667969 316.339844 148.847656 C 317.121094 151.023438 317.847656 153.222656 318.519531 155.433594 C 319.191406 157.648438 319.804688 159.878906 320.367188 162.121094 C 320.929688 164.367188 321.4375 166.621094 321.886719 168.890625 C 322.339844 171.160156 322.734375 173.4375 323.074219 175.726562 C 323.414062 178.015625 323.699219 180.3125 323.925781 182.613281 C 324.152344 184.914062 324.320312 187.222656 324.433594 189.53125 C 324.546875 191.84375 324.605469 194.15625 324.605469 196.46875 Z M 324.605469 196.46875 " fill-opacity="1" fill-rule="nonzero"/></g><g clip-path="url(#bee0b14f6b)"><path fill="#1b3067" d="M 183.246094 324.347656 C 112.667969 324.347656 55.367188 267.042969 55.367188 196.46875 C 55.367188 125.894531 112.667969 68.59375 183.246094 68.59375 C 253.820312 68.59375 311.121094 125.894531 311.121094 196.46875 C 311.121094 267.042969 253.820312 324.347656 183.246094 324.347656 Z M 183.246094 71.753906 C 114.355469 71.753906 58.527344 127.578125 58.527344 196.46875 C 58.527344 265.359375 114.566406 321.1875 183.246094 321.1875 C 252.132812 321.1875 307.960938 265.148438 307.960938 196.46875 C 307.960938 127.578125 252.132812 71.753906 183.246094 71.753906 Z M 183.246094 71.753906 " fill-opacity="1" fill-rule="nonzero"/></g><g clip-path="url(#087cfdf778)"><g clip-path="url(#94752663d1)"><g clip-path="url(#80cd1acc02)"><path fill="#19f7ee" d="M 200.65625 311.277344 C 199.800781 311.402344 198.925781 311.53125 198.015625 311.660156 C 184.34375 313.5625 170.460938 314.691406 156.746094 315.007812 C 113.824219 315.996094 84.050781 308.871094 83.773438 308.796875 L 79.359375 307.726562 L 78.789062 303.121094 C 75.660156 277.933594 62.726562 239.378906 52.023438 216.660156 C 41.660156 194.675781 41.015625 170.535156 50.171875 146.851562 C 57.589844 127.648438 59.347656 107.109375 56.664062 71.074219 C 55.597656 56.789062 57.042969 45.875 60.941406 38.636719 C 63.695312 33.53125 68.804688 30.007812 74.605469 29.199219 C 77.5625 28.789062 80.59375 29.109375 83.382812 30.117188 C 113.015625 40.859375 188.722656 92.414062 198.28125 98.960938 C 203.035156 101.019531 217.816406 107.570312 224 112.226562 C 230.652344 117.222656 234.128906 130.574219 235.679688 138.664062 C 286.605469 183.5 319.34375 263.175781 319.671875 263.980469 L 321.898438 269.492188 L 316.710938 272.382812 C 282.828125 291.261719 245.507812 304.078125 205.785156 310.488281 Z M 200.65625 311.277344 " fill-opacity="1" fill-rule="nonzero"/></g></g></g><g clip-path="url(#d465edb3a7)"><g clip-path="url(#868bcc8f43)"><g clip-path="url(#024dfd2ffc)"><path fill="#eaeaea" d="M 206.628906 156.585938 C 198.417969 145.933594 185.292969 133.074219 168.5 119.199219 C 168.5 119.199219 168.492188 119.199219 168.492188 119.195312 C 168.492188 119.195312 168.492188 119.1875 168.484375 119.1875 C 170.578125 124.289062 173.445312 131.796875 173.988281 135.710938 C 174.855469 141.945312 169.601562 160.921875 169.378906 161.734375 L 166.8125 170.949219 L 166.601562 161.382812 C 166.597656 161.269531 166.308594 149.523438 163.84375 141.527344 C 161.492188 133.914062 154.925781 111.078125 153.9375 107.632812 C 139.679688 96.730469 124.4375 86.238281 111.625 78.496094 C 111.976562 82.003906 112.671875 88.011719 113.535156 91.566406 C 114.890625 97.140625 110.273438 115.265625 109.746094 117.316406 L 107.582031 125.660156 L 106.960938 117.066406 C 106.945312 116.863281 105.425781 96.3125 102.136719 90.15625 C 99.050781 84.382812 99.175781 74.578125 99.308594 71.519531 C 95.09375 69.335938 91.664062 67.828125 89.144531 67.050781 C 83.539062 65.332031 78.621094 65.582031 74.523438 67.789062 C 68.328125 71.125 65.828125 77.941406 65.402344 79.210938 C 65.40625 79.214844 65.40625 79.214844 65.40625 79.214844 L 65.40625 79.222656 C 67.261719 111.292969 65.0625 130.960938 57.804688 149.757812 C 49.476562 171.3125 50.042969 193.253906 59.433594 213.195312 C 70.265625 236.179688 83.355469 275.109375 86.789062 301.128906 C 92.042969 302.289062 118.894531 307.746094 156.671875 306.867188 C 170.222656 306.546875 186.203125 305.367188 203.757812 302.578125 C 203.765625 302.578125 203.773438 302.574219 203.773438 302.574219 C 230.796875 293.582031 249.308594 278.414062 258.792969 257.488281 C 259.949219 254.945312 260.941406 252.371094 261.789062 249.777344 C 246.03125 219.828125 222.773438 177.503906 206.628906 156.585938 Z M 132.824219 106.40625 C 134.917969 106.925781 136.898438 107.929688 138.625 109.222656 L 139.847656 110.273438 C 140.269531 110.625 140.605469 111.039062 140.96875 111.429688 C 141.714844 112.199219 142.296875 113.085938 142.875 113.976562 C 143.1875 114.402344 143.402344 114.882812 143.644531 115.359375 C 143.875 115.824219 144.089844 116.304688 144.296875 116.777344 C 144.644531 117.769531 144.953125 118.769531 145.160156 119.792969 C 144.390625 119.042969 143.761719 118.257812 143.109375 117.5 C 142.765625 117.128906 142.417969 116.769531 142.09375 116.398438 C 133.164062 119.066406 130.191406 107.878906 130.136719 107.644531 C 128.992188 107.191406 127.800781 106.796875 126.511719 106.492188 C 128.519531 105.804688 130.746094 105.902344 132.824219 106.40625 Z M 222.179688 256.695312 C 197.027344 267.191406 175.023438 272.589844 156.863281 275.117188 C 143.335938 277 131.941406 277.289062 122.960938 276.917969 C 100.058594 275.949219 87.738281 270.695312 87.222656 270.46875 L 86.683594 270.230469 L 86.46875 269.679688 C 77.179688 245.730469 73.949219 237.730469 72.027344 232.945312 C 69.558594 226.835938 69.046875 225.5625 60.667969 202.953125 C 51.554688 178.355469 60.640625 165.277344 69.863281 158.640625 C 74.953125 154.972656 81.144531 152.707031 87.757812 152.089844 C 109.222656 150.0625 129.703125 154.234375 148.636719 164.480469 C 163.742188 172.660156 177.882812 184.703125 190.679688 200.265625 C 212.40625 226.710938 222.863281 254.621094 222.964844 254.902344 L 223.433594 256.175781 Z M 219.234375 254.867188 C 176.808594 272.25 143.6875 274.9375 123.269531 274.105469 C 104.613281 273.347656 92.929688 269.582031 89.453125 268.300781 L 92.34375 255.84375 L 102.421875 270.039062 L 108.785156 255.390625 L 120.417969 271.6875 L 127.039062 255.242188 L 138.128906 271.859375 L 146.714844 253.929688 L 159.625 269.238281 L 168.625 251.21875 L 181.851562 265.566406 L 189.917969 246.941406 L 202.070312 259.703125 L 208.054688 242.570312 Z M 198.011719 228.480469 L 195.996094 214.003906 L 182.496094 214.203125 L 179.257812 196.894531 L 163.546875 200.582031 L 158.4375 180.285156 L 140.683594 189.183594 L 130.042969 168.039062 L 116.445312 184.003906 L 103.378906 162.960938 L 92.488281 184.929688 L 77.09375 164.273438 L 74.007812 188.070312 L 62.589844 178.425781 L 64.847656 194.625 L 60.523438 191.976562 C 57.441406 175.414062 64.433594 166.046875 71.535156 160.921875 C 76.210938 157.558594 81.917969 155.476562 88.027344 154.894531 C 135.347656 150.441406 168.75 178.050781 188.441406 202 C 196.011719 211.195312 202.195312 220.582031 207.027344 228.886719 Z M 198.011719 228.480469 " fill-opacity="1" fill-rule="nonzero"/></g></g></g><g clip-path="url(#2cccd8f3cb)"><g clip-path="url(#d8cfc5dc19)"><g clip-path="url(#deb0bbe94c)"><path fill="#1b3067" d="M 223.667969 122.785156 L 230.800781 143.84375 C 257.675781 167.539062 265.421875 185.429688 265.421875 185.429688 L 272.464844 236.027344 L 262.941406 245.898438 C 261.71875 210.839844 235.019531 170.152344 235.019531 170.152344 L 248.089844 177.582031 C 232.226562 157.128906 214.332031 149.054688 214.332031 149.054688 C 226.605469 139.542969 219.078125 118.722656 219.078125 118.722656 C 223.222656 119.140625 223.667969 122.785156 223.667969 122.785156 Z M 132.191406 217.773438 C 130.746094 222.820312 128.167969 232.671875 127.035156 242.328125 C 127.035156 242.328125 118.867188 226.820312 120.648438 209.03125 C 119.949219 208.574219 119.238281 208.140625 118.53125 207.714844 C 117.527344 211.027344 114.015625 223.066406 112.632812 234.824219 C 112.632812 234.824219 104.585938 219.554688 106.199219 201.949219 C 105.4375 201.691406 104.664062 201.464844 103.894531 201.25 C 102.421875 206.578125 100.175781 215.589844 99.132812 224.4375 C 99.132812 224.4375 93.410156 213.578125 92.585938 199.617188 C 92.0625 199.621094 91.542969 199.617188 91.023438 199.640625 C 77.203125 200.128906 68.617188 208.222656 66.484375 210.480469 C 71.886719 225.027344 72.566406 226.695312 74.664062 231.910156 C 76.46875 236.402344 79.429688 243.730469 87.464844 264.394531 L 91.019531 249.078125 L 101.835938 264.324219 L 108.1875 249.691406 L 119.726562 265.835938 L 126.425781 249.203125 L 134.042969 260.628906 C 137.441406 244.125 140.828125 230.164062 141.640625 226.832031 C 138.460938 223.511719 135.3125 220.496094 132.191406 217.773438 Z M 185.449219 98.128906 L 173.71875 99.761719 L 198.804688 108.101562 Z M 65.015625 73.367188 C 65.015625 73.367188 68.007812 56.304688 76.734375 54.632812 C 85.460938 52.957031 98.222656 60.191406 98.222656 60.191406 C 98.222656 60.191406 90.445312 50.949219 78.929688 47.460938 C 78.929688 47.460938 88.488281 48.054688 95.40625 52.039062 C 95.40625 52.039062 91.144531 42.472656 82.683594 38.574219 L 78.5625 35.523438 C 78.5625 35.523438 67.253906 36.820312 65.195312 46.167969 C 63.136719 55.515625 62.519531 63.128906 62.519531 63.128906 Z M 163.640625 115.25 L 163.585938 114.898438 L 163.582031 114.886719 L 163.492188 114.6875 L 163.554688 114.28125 C 163.578125 114.121094 164.191406 110.183594 166.632812 104.613281 C 167.230469 103.246094 167.304688 101.726562 166.855469 100.320312 L 161.738281 84.425781 L 161.730469 84.425781 C 158.109375 82.066406 154.328125 79.625 150.421875 77.121094 C 154.023438 84.285156 159.800781 96.527344 159.152344 100.027344 C 158.507812 103.429688 157.285156 105.914062 156.6875 106.984375 C 157.8125 110.886719 164.238281 133.210938 166.546875 140.703125 C 167.679688 144.390625 168.371094 148.738281 168.792969 152.480469 C 170.21875 146.304688 171.59375 139.113281 171.175781 136.101562 C 170.4375 130.804688 164.757812 117.59375 163.796875 115.386719 Z M 110.085938 52.511719 C 107.597656 51.089844 105.167969 49.726562 102.808594 48.441406 L 102.804688 48.441406 C 108.027344 63.277344 107.144531 64.378906 106.65625 64.992188 C 105.828125 66.019531 103 69.992188 102.152344 71.175781 C 102.054688 73.277344 101.730469 83.402344 104.632812 88.839844 C 106.742188 92.789062 108.136719 101.582031 108.929688 108.28125 C 110.238281 102.101562 111.425781 94.925781 110.773438 92.238281 C 109.453125 86.804688 108.570312 76.410156 108.527344 75.96875 L 108.496094 75.609375 L 108.644531 75.28125 C 108.671875 75.210938 111.5 68.738281 112.40625 63.546875 C 112.617188 62.367188 112.585938 61.101562 112.410156 59.847656 C 111.960938 56.625 110.585938 53.539062 110.085938 52.511719 Z M 110.085938 52.511719 " fill-opacity="1" fill-rule="nonzero"/></g></g></g><g clip-path="url(#b1d647ef80)"><g clip-path="url(#3f281c0727)"><g clip-path="url(#06f18473b8)"><path fill="#979797" d="M 263.625 248.964844 C 263.625 248.964844 259.089844 283.421875 229.023438 296.339844 C 198.960938 309.261719 172.882812 306.101562 172.882812 306.101562 C 204.949219 304.324219 224.589844 283.578125 224.589844 283.578125 C 220.371094 285.46875 210.875 286.972656 210.875 286.972656 C 219.019531 283.792969 226.59375 272.519531 226.59375 272.519531 C 210.875 286.972656 189.222656 289.617188 189.222656 289.617188 C 220.90625 275.910156 223.433594 256.183594 223.433594 256.183594 L 222.769531 254.945312 L 185.328125 268.308594 L 189.917969 246.945312 L 207.054688 238.066406 L 218.410156 246.863281 L 211.800781 234.617188 L 209.628906 231.085938 L 200.882812 233.539062 L 163.546875 200.574219 L 174.28125 194.304688 C 169.027344 182.027344 163.605469 177.722656 163.605469 177.722656 C 174.011719 182.75 186.808594 197.285156 196.546875 209.835938 L 195.886719 208.765625 L 184.585938 193.234375 C 208.71875 217.746094 227.164062 241.214844 227.164062 241.214844 C 213.265625 211.921875 199.742188 200.796875 199.742188 200.796875 C 202.785156 182.53125 199.042969 171.53125 199.042969 171.53125 C 208.316406 183.617188 222.390625 206.9375 222.390625 206.9375 C 207.703125 166.605469 177.484375 126.828125 177.484375 126.828125 L 192.285156 138.636719 L 208.574219 156.445312 L 236.957031 202.121094 Z M 158.84375 293.878906 C 176.160156 289.609375 191.601562 277.421875 191.601562 277.421875 C 129.75 297.1875 93.167969 283.273438 93.167969 283.273438 C 133.058594 317.820312 177.511719 291.277344 177.511719 291.277344 C 169.195312 293.183594 158.84375 293.878906 158.84375 293.878906 Z M 140.941406 149.875 C 140.941406 149.875 117.367188 132.660156 99.746094 126.777344 C 99.746094 126.777344 107.476562 127.027344 119.222656 129.105469 C 119.222656 129.105469 101.210938 110.488281 76.523438 112.777344 C 76.523438 112.777344 72.941406 92.425781 79.960938 89.222656 C 86.976562 86.019531 94.496094 89.054688 94.496094 89.054688 C 94.496094 89.054688 82.816406 73.25 65.691406 85.09375 L 64.785156 97.507812 L 62.21875 129.371094 L 55.839844 150.886719 L 51.613281 163.050781 L 52.578125 170 C 52.578125 170 59.023438 142.632812 81.871094 137.804688 C 104.71875 132.988281 140.941406 149.875 140.941406 149.875 Z M 140.941406 149.875 " fill-opacity="1" fill-rule="nonzero"/></g></g></g><g clip-path="url(#0e60324911)"><g clip-path="url(#08fad4a7ac)"><g clip-path="url(#a4fda1e418)"><path fill="#0d1016" d="M 315.3125 265.738281 C 314.984375 264.933594 282.066406 184.9375 231.34375 141.117188 C 230.667969 137.265625 227.433594 120.6875 221.164062 115.972656 C 214.996094 111.328125 198.167969 104.023438 195.992188 103.082031 C 187.140625 97.019531 111.136719 45.171875 81.773438 34.527344 C 75.449219 32.234375 68.277344 34.953125 65.09375 40.847656 C 61.617188 47.285156 60.359375 57.332031 61.359375 70.71875 C 64.101562 107.515625 62.257812 128.601562 54.5625 148.527344 C 45.886719 170.988281 46.480469 193.859375 56.289062 214.664062 C 67.144531 237.714844 80.28125 276.886719 83.464844 302.539062 L 83.640625 303.933594 L 84.996094 304.257812 C 85.261719 304.328125 114.3125 311.285156 156.644531 310.3125 C 170.167969 310.003906 183.871094 308.894531 197.371094 307.015625 C 199.695312 306.691406 201.824219 306.371094 203.855469 306.042969 L 203.90625 306.183594 L 204.609375 305.925781 C 243.953125 299.625 280.898438 286.960938 314.414062 268.292969 L 315.988281 267.417969 Z M 156.648438 306.246094 C 119.828125 307.101562 93.3125 301.90625 87.34375 300.617188 C 83.8125 274.570312 70.699219 235.664062 59.992188 212.933594 C 50.671875 193.148438 50.113281 171.382812 58.378906 149.984375 C 65.710938 130.984375 67.859375 111.160156 66.027344 79.300781 C 66.550781 77.78125 69.019531 71.464844 74.808594 68.339844 C 78.753906 66.214844 83.511719 65.984375 88.949219 67.652344 C 91.339844 68.382812 94.609375 69.8125 98.660156 71.898438 C 98.546875 75.269531 98.535156 84.769531 101.578125 90.453125 C 104.8125 96.503906 106.316406 116.914062 106.332031 117.117188 L 107.226562 129.5 L 110.347656 117.472656 C 110.882812 115.410156 115.53125 97.140625 114.140625 91.417969 C 113.351562 88.167969 112.710938 82.78125 112.378906 79.679688 C 124.851562 87.289062 139.710938 97.550781 153.386719 108 C 154.910156 113.324219 161.03125 134.539062 163.234375 141.714844 C 165.683594 149.660156 165.96875 161.28125 165.964844 161.402344 L 166.273438 175.199219 L 169.96875 161.902344 C 170.535156 159.867188 175.460938 141.824219 174.597656 135.632812 C 174.125 132.234375 171.992188 126.316406 169.980469 121.265625 C 185.796875 134.476562 198.265625 146.792969 206.121094 156.976562 C 221.992188 177.546875 244.753906 218.777344 261.097656 249.84375 C 260.257812 252.371094 259.285156 254.859375 258.207031 257.246094 C 248.808594 277.992188 230.4375 293.042969 203.605469 301.980469 C 188.089844 304.4375 172.285156 305.878906 156.648438 306.246094 Z M 80.363281 38.347656 C 84.957031 40.011719 91.078125 42.878906 98.566406 46.851562 C 101.273438 54.363281 103.417969 61.375 103.605469 63.273438 C 102.6875 64.480469 100.972656 66.871094 100.121094 68.058594 C 96.027344 65.972656 92.671875 64.527344 90.152344 63.757812 C 86.257812 62.5625 82.617188 62.199219 79.265625 62.667969 C 76.996094 62.984375 74.855469 63.679688 72.863281 64.753906 C 70.019531 66.289062 67.546875 68.539062 65.503906 71.449219 C 65.480469 71.101562 65.453125 70.757812 65.429688 70.410156 C 64.488281 57.800781 65.582031 48.5 68.683594 42.761719 C 70.914062 38.644531 75.933594 36.746094 80.363281 38.347656 Z M 115.148438 56.148438 C 123.941406 61.289062 134.046875 67.46875 145.210938 74.542969 C 150.757812 85.125 155.273438 95.507812 155.726562 98.742188 C 155.777344 99.121094 155.765625 99.304688 155.746094 99.394531 C 155.417969 101.160156 154.902344 102.628906 154.449219 103.691406 C 140.28125 92.933594 125.0625 82.523438 112.503906 75.007812 C 113.390625 72.792969 115.109375 68.199219 115.820312 64.136719 C 116.222656 61.851562 116 59.171875 115.148438 56.148438 Z M 166.058594 104.359375 C 163.550781 110.101562 162.945312 114.15625 162.941406 114.183594 L 162.847656 114.777344 L 162.984375 115.070312 L 163.066406 115.582031 L 163.296875 115.769531 C 164.515625 118.601562 169.867188 131.15625 170.566406 136.191406 C 170.847656 138.207031 170.28125 142.652344 168.964844 148.875 C 168.480469 145.664062 167.875 142.867188 167.160156 140.523438 C 164.863281 133.078125 158.410156 110.667969 157.375 107.066406 C 157.96875 105.972656 159.152344 103.488281 159.789062 100.148438 C 160.390625 96.90625 156.105469 87.1875 152.003906 78.871094 C 155.320312 80.996094 158.355469 82.960938 161.226562 84.839844 L 166.269531 100.515625 C 166.660156 101.773438 166.59375 103.140625 166.058594 104.359375 Z M 111.800781 63.445312 C 110.980469 68.101562 108.570312 73.878906 108.085938 75.023438 L 107.871094 75.496094 L 107.917969 76.105469 C 108.144531 78.683594 108.976562 87.472656 110.171875 92.378906 C 110.601562 94.144531 110.207031 98.359375 109.070312 104.421875 C 108.230469 98.445312 106.960938 91.863281 105.191406 88.542969 C 102.4375 83.386719 102.671875 73.71875 102.777344 71.382812 L 103.039062 71.011719 C 104.140625 69.476562 106.429688 66.269531 107.152344 65.378906 C 107.804688 64.578125 108.691406 63.484375 103.941406 49.765625 C 105.988281 50.898438 107.992188 52.035156 109.621094 52.960938 C 110.195312 54.195312 111.394531 57.003906 111.804688 59.945312 C 111.972656 61.242188 111.980469 62.417969 111.800781 63.445312 Z M 262.742188 244.183594 C 246.796875 214.042969 224.867188 174.5625 209.378906 154.484375 C 198.121094 139.890625 180.292969 124.292969 167.203125 113.691406 C 167.339844 113.09375 167.574219 112.148438 167.945312 110.945312 C 168.445312 109.332031 169.066406 107.667969 169.800781 105.992188 C 170.730469 103.867188 170.859375 101.476562 170.148438 99.265625 L 166.640625 88.382812 C 174.519531 93.546875 181.203125 98.023438 185.519531 100.933594 C 189.828125 103.832031 192.691406 105.789062 193.554688 106.378906 L 193.878906 106.597656 L 194.171875 106.753906 C 194.351562 106.828125 212.582031 114.628906 218.683594 119.222656 C 222.828125 122.347656 226.242188 135.164062 227.421875 142.5 L 227.539062 143.246094 L 228.113281 143.730469 C 237.589844 151.851562 247.117188 161.867188 256.433594 173.503906 C 258.117188 177.609375 271.089844 211.128906 262.742188 244.183594 Z M 185.226562 118.074219 C 186.316406 120.242188 196.164062 139.289062 206.382812 139.003906 C 206.816406 138.992188 207.265625 138.957031 207.707031 138.894531 C 215.480469 137.8125 217.941406 129.277344 218.15625 124.917969 L 218.238281 123.277344 L 183.207031 114.042969 Z M 129.613281 108.113281 C 130 109.40625 131.675781 114.257812 135.507812 116.410156 C 137.417969 117.484375 139.5625 117.714844 141.890625 117.109375 C 142.136719 117.382812 142.390625 117.648438 142.632812 117.910156 C 142.792969 118.097656 142.953125 118.28125 143.109375 118.472656 C 143.601562 119.058594 144.117188 119.660156 144.714844 120.246094 L 146.167969 121.652344 L 145.769531 119.675781 C 145.585938 118.765625 145.3125 117.808594 144.863281 116.535156 C 144.648438 116.050781 144.429688 115.566406 144.195312 115.089844 L 144.070312 114.847656 C 143.871094 114.441406 143.660156 114.015625 143.394531 113.644531 C 142.789062 112.710938 142.183594 111.800781 141.421875 111.011719 C 141.332031 110.917969 141.25 110.820312 141.160156 110.726562 C 140.882812 110.414062 140.59375 110.09375 140.25 109.808594 L 139 108.738281 C 137.144531 107.339844 135.058594 106.328125 132.96875 105.808594 C 130.484375 105.210938 128.242188 105.246094 126.296875 105.910156 L 124.265625 106.609375 L 126.355469 107.105469 C 127.449219 107.363281 128.519531 107.691406 129.613281 108.113281 Z M 191.167969 199.875 C 178.328125 184.25 164.125 172.15625 148.945312 163.933594 C 129.894531 153.625 109.292969 149.429688 87.707031 151.464844 C 80.980469 152.101562 74.683594 154.40625 69.503906 158.136719 C 60.101562 164.90625 50.839844 178.214844 60.085938 203.171875 C 68.476562 225.828125 68.988281 227.097656 71.445312 233.175781 L 71.628906 233.628906 C 73.597656 238.515625 76.886719 246.691406 85.886719 269.90625 L 86.191406 270.695312 L 86.980469 271.042969 C 88.308594 271.609375 100.605469 276.597656 122.933594 277.535156 C 133.6875 277.984375 145.128906 277.378906 156.949219 275.734375 C 178.074219 272.792969 200.101562 266.578125 222.417969 257.273438 L 224.234375 256.53125 L 223.554688 254.691406 C 223.453125 254.410156 212.941406 226.382812 191.167969 199.875 Z M 218.167969 254.625 C 212.773438 256.816406 207.53125 258.773438 202.453125 260.511719 L 208.300781 243.777344 Z M 102.625 271.152344 L 108.925781 256.660156 L 120.582031 272.992188 L 127.183594 256.585938 L 138.222656 273.128906 L 146.863281 255.082031 L 159.765625 270.375 L 168.785156 252.316406 L 181.980469 266.636719 C 157.144531 272.976562 137.207031 274.050781 123.296875 273.484375 C 114.984375 273.144531 108.046875 272.195312 102.625 271.152344 Z M 102.410156 271.105469 C 96.332031 269.917969 92.1875 268.609375 90.195312 267.902344 L 92.648438 257.34375 Z M 88.082031 155.523438 C 135.121094 151.097656 168.355469 178.570312 187.957031 202.398438 C 190.824219 205.890625 193.621094 209.554688 196.324219 213.375 L 183.015625 213.570312 L 179.753906 196.132812 L 164.003906 199.824219 L 158.855469 179.371094 L 140.964844 188.335938 L 130.179688 166.914062 L 116.519531 182.941406 L 103.308594 161.671875 L 92.378906 183.742188 L 76.667969 162.664062 L 73.527344 186.859375 L 61.742188 176.894531 L 64.039062 193.402344 L 61.082031 191.59375 C 58.136719 175.242188 65.320312 166.167969 71.898438 161.433594 C 76.480469 158.140625 82.078125 156.089844 88.082031 155.523438 Z M 198.5625 227.882812 L 196.59375 213.765625 C 199.839844 218.371094 202.953125 223.199219 205.90625 228.21875 Z M 91.046875 200.257812 C 91.359375 200.246094 91.679688 200.238281 91.996094 200.238281 C 92.945312 213.894531 98.519531 224.617188 98.578125 224.730469 L 99.515625 226.511719 L 99.746094 224.507812 C 100.722656 216.222656 102.742188 207.8125 104.324219 202.023438 C 104.753906 202.144531 105.148438 202.265625 105.527344 202.382812 C 104.109375 219.769531 111.996094 234.957031 112.074219 235.109375 L 113.015625 236.890625 L 113.25 234.890625 C 114.519531 224.050781 117.644531 212.855469 118.894531 208.667969 C 119.238281 208.882812 119.613281 209.109375 119.980469 209.347656 C 118.351562 226.960938 126.390625 242.460938 126.476562 242.613281 L 127.410156 244.394531 L 127.644531 242.394531 C 128.710938 233.359375 131.046875 224.125 132.511719 218.886719 C 135.277344 221.332031 138.109375 224.058594 140.9375 227.007812 C 139.929688 231.148438 136.839844 243.988281 133.722656 259.03125 L 126.269531 247.867188 L 119.558594 264.539062 L 108.035156 248.402344 L 101.679688 263.03125 L 90.703125 247.554688 L 87.292969 262.253906 C 80.160156 243.933594 77.25 236.679688 75.480469 232.292969 L 75.191406 231.578125 C 73.136719 226.484375 72.4375 224.738281 67.1875 210.609375 C 69.796875 207.976562 78.050781 200.722656 91.046875 200.257812 Z M 202.085938 260.640625 C 195.109375 263.015625 188.441406 264.980469 182.082031 266.609375 L 190.117188 248.0625 Z M 202.085938 260.640625 " fill-opacity="1" fill-rule="nonzero"/></g></g></g><g clip-path="url(#1d7cddb0ba)"><g clip-path="url(#d21d49ff0a)"><path fill="#1b3067" d="M 16.691406 296.832031 L 351.460938 260.828125 L 358.894531 329.9375 L 24.125 365.941406 L 16.691406 296.832031 " fill-opacity="1" fill-rule="nonzero"/></g></g><g clip-path="url(#fb746b3328)"><g clip-path="url(#8ed0215e9d)"><path fill="#19f7ee" d="M 358.078125 329.277344 L 359.550781 329.117188 L 359.710938 330.601562 L 358.238281 330.761719 L 358.078125 329.277344 M 16.035156 297.652344 L 17.507812 297.492188 L 24.78125 365.121094 L 23.308594 365.28125 L 16.035156 297.652344 M 23.308594 365.28125 L 24.78125 365.121094 L 24.941406 366.605469 L 23.46875 366.761719 L 23.308594 365.28125 M 350.804688 261.648438 L 352.277344 261.492188 L 359.550781 329.117188 L 358.078125 329.277344 L 350.804688 261.648438 M 24.78125 365.121094 L 358.078125 329.277344 L 358.238281 330.761719 L 24.941406 366.605469 L 24.78125 365.121094 M 350.644531 260.164062 L 352.117188 260.007812 L 352.277344 261.492188 L 350.804688 261.648438 L 350.644531 260.164062 M 15.875 296.167969 L 17.351562 296.007812 L 17.507812 297.492188 L 16.035156 297.652344 L 15.875 296.167969 M 17.351562 296.007812 L 350.644531 260.164062 L 350.804688 261.648438 L 17.507812 297.492188 L 17.351562 296.007812 " fill-opacity="1" fill-rule="nonzero"/></g></g><g fill="#19f7ee" fill-opacity="1"><g transform="translate(38.025528, 350.365603)"><g><path d="M 7.121094 -46.03125 L 13.695312 -46.738281 L 9.632812 -7.195312 L 18.339844 -8.132812 L 17.714844 -1.90625 L 2.433594 -0.261719 Z M 7.121094 -46.03125 "/></g></g></g><g fill="#19f7ee" fill-opacity="1"><g transform="translate(69.134037, 347.019615)"><g><path d="M 20.5 -11.503906 C 20.210938 -9.625 19.65625 -7.902344 18.894531 -6.40625 C 18.113281 -5.089844 17.203125 -3.820312 15.898438 -2.757812 C 14.550781 -1.566406 12.835938 -0.886719 10.707031 -0.660156 C 8.574219 -0.429688 6.941406 -0.746094 5.734375 -1.664062 C 4.601562 -2.464844 3.925781 -3.5625 3.554688 -4.753906 C 2.976562 -6.109375 2.804688 -7.691406 2.96875 -9.617188 L 5.734375 -36.582031 C 5.96875 -38.394531 6.46875 -40.046875 7.285156 -41.613281 C 8.070312 -42.929688 8.910156 -44.25 10.214844 -45.316406 C 11.515625 -46.378906 13.277344 -47.183594 15.46875 -47.421875 C 17.660156 -47.65625 19.246094 -47.210938 20.378906 -46.410156 C 21.515625 -45.605469 22.253906 -44.453125 22.628906 -43.261719 C 23.199219 -41.96875 23.367188 -40.386719 23.265625 -38.46875 Z M 16.691406 -37.761719 C 16.804688 -39.003906 16.585938 -39.902344 16.085938 -40.527344 C 15.808594 -40.804688 15.363281 -40.941406 14.816406 -40.882812 C 13.660156 -40.757812 13.019531 -39.828125 12.679688 -38.992188 C 12.488281 -38.476562 12.363281 -37.910156 12.308594 -37.289062 L 9.542969 -10.324219 C 9.363281 -9.136719 9.589844 -8.175781 10.148438 -7.558594 C 10.425781 -7.28125 10.808594 -7.136719 11.359375 -7.195312 C 12.515625 -7.320312 13.167969 -8.128906 13.496094 -9.085938 C 13.636719 -9.472656 13.824219 -10.046875 13.925781 -10.796875 Z M 16.691406 -37.761719 "/></g></g></g><g fill="#19f7ee" fill-opacity="1"><g transform="translate(103.833807, 343.287356)"><g><path d="M 0.609375 -0.0664062 L 12.050781 -46.558594 L 20.085938 -47.425781 L 22.160156 -2.382812 L 15.769531 -1.695312 L 15.457031 -10.898438 L 9.125 -10.21875 L 7 -0.753906 Z M 14.894531 -32.148438 L 14.832031 -33.3125 L 14.464844 -33.269531 L 14.164062 -32.070312 L 10.8125 -17.421875 L 15.316406 -17.90625 Z M 14.894531 -32.148438 "/></g></g></g><g fill="#19f7ee" fill-opacity="1"><g transform="translate(139.750953, 339.424157)"><g><path d="M 11.796875 -24.855469 L 11.453125 -26.914062 L 11.089844 -26.871094 L 8.460938 -0.910156 L 2.433594 -0.261719 L 7.121094 -46.03125 L 12.964844 -46.65625 L 16.871094 -23.492188 L 17.214844 -21.433594 L 17.582031 -21.472656 L 20.269531 -47.445312 L 26.296875 -48.09375 L 21.613281 -2.324219 L 15.769531 -1.695312 Z M 11.796875 -24.855469 "/></g></g></g><g fill="#19f7ee" fill-opacity="1"><g transform="translate(176.946334, 335.423474)"><g><path d="M 16.75 -34.933594 C 16.898438 -36.425781 17.023438 -38.105469 16.703125 -39.363281 C 16.390625 -40.5625 15.8125 -41.359375 14.777344 -41.25 C 13.078125 -41.003906 12.355469 -39.140625 12.089844 -36.464844 C 11.949219 -34.910156 12.363281 -33.351562 13.214844 -31.71875 C 14.070312 -30.089844 15.050781 -28.40625 16.167969 -26.617188 C 17.566406 -24.492188 18.726562 -22.273438 19.699219 -20.101562 C 20.613281 -17.921875 21.164062 -15.640625 20.878906 -13.144531 C 20.53125 -10.089844 19.851562 -7.246094 18.191406 -4.914062 C 16.535156 -2.578125 14.238281 -1.039062 10.585938 -0.644531 C 6.382812 -0.195312 4.144531 -1.554688 3.089844 -3.902344 C 1.914062 -6.242188 2.0625 -9.460938 2.363281 -12.941406 L 8.875 -14.257812 C 8.652344 -12.324219 8.550781 -10.402344 8.882812 -9.023438 C 9.222656 -7.582031 9.816406 -6.660156 11.214844 -6.808594 C 13.164062 -7.019531 14.035156 -9.207031 14.398438 -12.140625 C 14.546875 -13.636719 14.058594 -15.308594 13.199219 -17 C 12.96875 -17.40625 12.734375 -17.875 12.507812 -18.28125 C 12.277344 -18.6875 12.042969 -19.15625 11.8125 -19.5625 C 11.289062 -20.429688 10.699219 -21.351562 10.097656 -22.332031 C 9.5 -23.316406 8.902344 -24.296875 8.292969 -25.402344 C 7.007812 -27.605469 6.210938 -29.859375 5.777344 -32.152344 C 5.472656 -33.289062 5.523438 -34.527344 5.636719 -35.769531 C 5.863281 -38.257812 6.675781 -40.992188 8.347656 -43.207031 C 9.902344 -45.34375 12.1875 -47.003906 15.285156 -47.402344 C 19.359375 -47.898438 21.421875 -46.460938 22.46875 -44.171875 C 23.460938 -41.8125 23.539062 -38.804688 23.257812 -36.25 Z M 16.75 -34.933594 "/></g></g></g><g fill="#19f7ee" fill-opacity="1"><g transform="translate(210.976537, 331.763232)"><g><path d="M 16.167969 -21.445312 L 11.054688 -20.894531 L 9.011719 -0.96875 L 2.433594 -0.261719 L 7.121094 -46.03125 L 13.695312 -46.738281 L 11.726562 -27.804688 L 16.839844 -28.355469 L 18.808594 -47.285156 L 25.382812 -47.992188 L 20.699219 -2.226562 L 14.125 -1.519531 Z M 16.167969 -21.445312 "/></g></g></g><g fill="#19f7ee" fill-opacity="1"><g transform="translate(247.25889, 327.860753)"><g><path d="M 0.609375 -0.0664062 L 12.050781 -46.558594 L 20.085938 -47.425781 L 22.160156 -2.382812 L 15.769531 -1.695312 L 15.457031 -10.898438 L 9.125 -10.21875 L 7 -0.753906 Z M 14.894531 -32.148438 L 14.832031 -33.3125 L 14.464844 -33.269531 L 14.164062 -32.070312 L 10.8125 -17.421875 L 15.316406 -17.90625 Z M 14.894531 -32.148438 "/></g></g></g><g fill="#19f7ee" fill-opacity="1"><g transform="translate(283.176031, 323.997555)"><g><path d="M 14.183594 -1.527344 L 12.703125 -20.457031 L 10.9375 -20.265625 L 9.011719 -0.96875 L 2.433594 -0.261719 L 7.121094 -46.03125 L 13.695312 -46.738281 C 21.546875 -47.582031 24.394531 -43.453125 23.542969 -34.742188 C 23.046875 -30.191406 21.472656 -25.957031 18.792969 -23.945312 L 20.761719 -2.234375 Z M 11.621094 -26.5 C 12.535156 -26.597656 13.746094 -26.789062 14.804688 -27.828125 C 15.863281 -28.863281 16.847656 -30.570312 17.179688 -33.808594 C 17.507812 -37.046875 16.90625 -38.644531 16.015625 -39.472656 C 15.125 -40.300781 13.90625 -40.171875 12.996094 -40.070312 Z M 11.621094 -26.5 "/></g></g></g><g fill="#19f7ee" fill-opacity="1"><g transform="translate(318.301878, 320.219467)"><g><path d="M 13.695312 -46.738281 L 12.027344 -30.730469 L 12.273438 -30.757812 L 12.679688 -31.539062 L 19.722656 -47.386719 L 26.113281 -48.074219 L 18.503906 -32.351562 L 22.222656 -2.390625 L 15.828125 -1.703125 L 13.308594 -21.136719 L 13.207031 -22.050781 L 13.027344 -22.03125 L 12.578125 -21.058594 L 10.65625 -17.15625 L 9.011719 -0.96875 L 2.433594 -0.261719 L 7.121094 -46.03125 Z M 13.695312 -46.738281 "/></g></g></g></svg>